<svg xmlns="http://www.w3.org/2000/svg" viewBox="0 0 400 400" role="img" aria-label="Layered chain anklet placeholder">
  <rect width="400" height="400" fill="#E4C1F9"/>
  <g fill="none" stroke="#D4AF37" stroke-width="5">
    <ellipse cx="60"  cy="230" rx="16" ry="10"/>
    <ellipse cx="90"  cy="230" rx="10" ry="16"/>
    <ellipse cx="120" cy="230" rx="16" ry="10"/>
    <ellipse cx="150" cy="230" rx="10" ry="16"/>
    <ellipse cx="180" cy="230" rx="16" ry="10"/>
    <ellipse cx="220" cy="230" rx="10" ry="16"/>
    <ellipse cx="250" cy="230" rx="16" ry="10"/>
    <ellipse cx="280" cy="230" rx="10" ry="16"/>
    <ellipse cx="310" cy="230" rx="16" ry="10"/>
    <ellipse cx="340" cy="230" rx="10" ry="16"/>
  </g>
  <path d="M 200 140 L 210 170 L 240 172 L 217 190 L 225 220 L 200 203 L 175 220 L 183 190 L 160 172 L 190 170 Z"
        fill="#FFD166" stroke="#2D1B3D" stroke-width="2" stroke-linejoin="round"/>
  <path d="M 200 205 L 200 222" stroke="#D4AF37" stroke-width="2"/>
</svg>
